<?xml version="1.0" encoding="UTF-8"?>
<svg width="980px" height="400px" viewBox="0 0 980 400" version="1.1" xmlns="http://www.w3.org/2000/svg" xmlns:xlink="http://www.w3.org/1999/xlink">
    <!-- Generator: Sketch 47.1 (45422) - http://www.bohemiancoding.com/sketch -->
    <title>Slice 1</title>
    <desc>Created with Sketch.</desc>
    <defs></defs>
    <g id="Page-1" stroke="none" stroke-width="1" fill="none" fill-rule="evenodd">
        <path d="M490.299363,57.0414519 L366.5,128.517047 L366.5,271.468239 L490.299363,342.943834 L614.098726,271.468239 L614.098726,128.517047 L490.299363,57.0414519 Z" id="Polygon" stroke="#343334" stroke-width="7"></path>
        <g id="noun_61265_cc" transform="translate(422.000000, 146.000000)" fill-rule="nonzero" fill="#343334">
            <path d="M134.962303,56.0571971 C134.381014,46.3473592 127.396015,38.8344177 115.393825,34.5215798 C114.933241,25.9609854 114.348775,14.6241108 114.1836,9.38108401 C114.107366,6.9397352 112.128442,3.29358551 110.37028,2.33164963 C108.653413,1.39193669 104.508155,2.13957992 102.554642,2.23164639 C90.166514,2.80785551 65.3870813,-0.425582422 52.9941886,0.0474487526 C49.4143372,0.183961105 47.5354711,0.872872279 39.6547157,5.28571344 C37.4566171,6.51591196 35.2537538,8.13818667 33.9307653,13.5748705 C32.5760123,19.1448919 29.6616257,33.5231348 27.9098174,42.2757989 C8.72886566,50.7475015 0,62.4970879 0,74.9181247 C0,94.0012817 29.355099,109.211297 65.9556647,106.735027 C102.089293,104.290503 136.294821,78.346807 134.962303,56.0571971 Z M39.2417781,13.1542219 C39.6023044,13.3574031 40.1486526,13.6209037 40.8617641,13.9002778 C41.5748756,14.1748899 42.4674561,14.4383905 43.5045648,14.6256981 C44.5432617,14.8066563 45.7328396,14.8907861 47.0145344,14.8066563 C48.337523,14.724114 49.771687,14.6336349 51.2884386,14.5383937 C52.0460203,14.4955352 52.8210724,14.4399778 53.613595,14.3796584 C54.0106504,14.3510861 54.409294,14.3225137 54.8142905,14.2939413 C55.2161105,14.2606069 55.6226952,14.2256852 56.0340446,14.1923508 C56.8551552,14.1336187 57.6826186,14.0336155 58.5227878,13.941549 C58.9436665,13.9018652 59.3613688,13.8383711 59.7838357,13.7764643 C60.2063026,13.7209069 60.6303578,13.6637622 61.0560012,13.6082049 C62.7522218,13.3399422 64.4706775,13.0272337 66.1748392,12.6240461 C67.0293024,12.4335637 67.8853539,12.2478434 68.7318759,12.0240267 C69.578398,11.8129087 70.4233319,11.6033781 71.2587364,11.3668625 C71.6780269,11.2509858 72.0925527,11.1366964 72.5070786,11.0239943 C72.9216044,10.9176417 73.334542,10.8049396 73.7427149,10.6874755 C74.5638255,10.4588967 75.370642,10.2319052 76.166341,10.0096758 C77.757739,9.55251813 79.2951375,9.10964666 80.7531249,8.68899813 C82.209524,8.25723814 83.5960415,7.87786078 84.8713834,7.51276961 C86.1467253,7.14450373 87.320421,6.82227108 88.3607061,6.53972226 C89.399403,6.24606197 90.309454,6.00795903 91.0575063,5.80795256 C91.8071469,5.60477138 92.4011417,5.46349697 92.8029618,5.35873167 C93.2047819,5.25714109 93.42078,5.20158373 93.42078,5.20158373 C93.42078,5.20158373 93.2158994,5.28730079 92.8315498,5.44444873 C92.4472002,5.60159667 91.8849697,5.84128697 91.1655054,6.12383579 C89.7265767,6.70321961 87.6650651,7.51276961 85.1731455,8.43025961 C83.929568,8.89694137 82.5732268,9.38267137 81.1374745,9.88586225 C79.7033104,10.3954025 78.180206,10.9097049 76.6015137,11.4255946 C75.0132922,11.9208487 73.3837769,12.4700728 71.6923209,12.9319925 C70.8553282,13.1812069 69.9992767,13.4034364 69.1400489,13.6272531 C68.2855857,13.860594 67.4152403,14.0637752 66.5433066,14.265369 C64.8010276,14.6574452 63.0317488,14.9574549 61.2862933,15.2146061 C59.5376614,15.4415975 57.8064999,15.5828719 56.137279,15.6670016 C55.3018745,15.7098602 54.4823522,15.754306 53.6803003,15.7590681 C52.8782484,15.776529 52.0936669,15.7892278 51.3313206,15.7892278 C49.8050397,15.808276 48.3692874,15.7860531 47.0415342,15.7701796 C45.670899,15.7622428 44.4257333,15.5479502 43.3632131,15.2527025 C42.2975164,14.9606296 41.4160534,14.5685534 40.7220006,14.2050496 C40.0263596,13.8415458 39.5244816,13.4812166 39.190955,13.2320022 C38.8590167,12.9780258 38.6986064,12.8240525 38.6986064,12.8240525 C38.6986064,12.8240525 38.8796636,12.9526281 39.2417781,13.1542219 Z M70.6568005,76.4784926 C21.2075224,76.484842 22.1032794,63.7003015 22.1032794,63.7003015 L25.9150111,51.5983227 C25.9150111,51.5983227 27.261823,60.7875088 69.8706308,58.7715706 C109.094938,56.9143677 116.740637,41.0646486 116.740637,41.0646486 L119.207145,55.1857403 C119.208733,55.184153 107.773538,76.4737305 70.6568005,76.4784926 Z" id="Shape"></path>
        </g>
    </g>
</svg>