<?xml version="1.0" encoding="UTF-8"?>
<svg width="980px" height="605px" viewBox="0 0 980 605" version="1.1" xmlns="http://www.w3.org/2000/svg" xmlns:xlink="http://www.w3.org/1999/xlink">
    <!-- Generator: Sketch 49 (51002) - http://www.bohemiancoding.com/sketch -->
    <title>Slice 1</title>
    <desc>Created with Sketch.</desc>
    <defs></defs>
    <g id="Page-1" stroke="none" stroke-width="1" fill="none" fill-rule="evenodd">
        <g id="noun_61265_cc" transform="translate(363.000000, 156.000000)">
            <path d="M127.299363,4.04145188 L3.5,75.5170474 L3.5,218.468239 L127.299363,289.943834 L251.098726,218.468239 L251.098726,75.5170474 L127.299363,4.04145188 Z" id="Polygon" stroke="#343334" stroke-width="7"></path>
            <path d="M193.962303,149.057197 C193.381014,139.347359 186.396015,131.834418 174.393825,127.52158 C173.933241,118.960985 173.348775,107.624111 173.1836,102.381084 C173.107366,99.9397352 171.128442,96.2935855 169.37028,95.3316496 C167.653413,94.3919367 163.508155,95.1395799 161.554642,95.2316464 C149.166514,95.8078555 124.387081,92.5744176 111.994189,93.0474488 C108.414337,93.1839611 106.535471,93.8728723 98.6547157,98.2857134 C96.4566171,99.515912 94.2537538,101.138187 92.9307653,106.57487 C91.5760123,112.144892 88.6616257,126.523135 86.9098174,135.275799 C67.7288657,143.747502 59,155.497088 59,167.918125 C59,187.001282 88.355099,202.211297 124.955665,199.735027 C161.089293,197.290503 195.294821,171.346807 193.962303,149.057197 Z M98.2417781,106.154222 C98.6023044,106.357403 99.1486526,106.620904 99.8617641,106.900278 C100.574876,107.17489 101.467456,107.43839 102.504565,107.625698 C103.543262,107.806656 104.73284,107.890786 106.014534,107.806656 C107.337523,107.724114 108.771687,107.633635 110.288439,107.538394 C111.04602,107.495535 111.821072,107.439978 112.613595,107.379658 C113.01065,107.351086 113.409294,107.322514 113.81429,107.293941 C114.216111,107.260607 114.622695,107.225685 115.034045,107.192351 C115.855155,107.133619 116.682619,107.033615 117.522788,106.941549 C117.943667,106.901865 118.361369,106.838371 118.783836,106.776464 C119.206303,106.720907 119.630358,106.663762 120.056001,106.608205 C121.752222,106.339942 123.470678,106.027234 125.174839,105.624046 C126.029302,105.433564 126.885354,105.247843 127.731876,105.024027 C128.578398,104.812909 129.423332,104.603378 130.258736,104.366863 C130.678027,104.250986 131.092553,104.136696 131.507079,104.023994 C131.921604,103.917642 132.334542,103.80494 132.742715,103.687475 C133.563825,103.458897 134.370642,103.231905 135.166341,103.009676 C136.757739,102.552518 138.295137,102.109647 139.753125,101.688998 C141.209524,101.257238 142.596041,100.877861 143.871383,100.51277 C145.146725,100.144504 146.320421,99.8222711 147.360706,99.5397223 C148.399403,99.246062 149.309454,99.007959 150.057506,98.8079526 C150.807147,98.6047714 151.401142,98.463497 151.802962,98.3587317 C152.204782,98.2571411 152.42078,98.2015837 152.42078,98.2015837 C152.42078,98.2015837 152.215899,98.2873008 151.83155,98.4444487 C151.4472,98.6015967 150.88497,98.841287 150.165505,99.1238358 C148.726577,99.7032196 146.665065,100.51277 144.173145,101.43026 C142.929568,101.896941 141.573227,102.382671 140.137474,102.885862 C138.70331,103.395403 137.180206,103.909705 135.601514,104.425595 C134.013292,104.920849 132.383777,105.470073 130.692321,105.931993 C129.855328,106.181207 128.999277,106.403436 128.140049,106.627253 C127.285586,106.860594 126.41524,107.063775 125.543307,107.265369 C123.801028,107.657445 122.031749,107.957455 120.286293,108.214606 C118.537661,108.441598 116.8065,108.582872 115.137279,108.667002 C114.301874,108.70986 113.482352,108.754306 112.6803,108.759068 C111.878248,108.776529 111.093667,108.789228 110.331321,108.789228 C108.80504,108.808276 107.369287,108.786053 106.041534,108.77018 C104.670899,108.762243 103.425733,108.54795 102.363213,108.252703 C101.297516,107.96063 100.416053,107.568553 99.7220006,107.20505 C99.0263596,106.841546 98.5244816,106.481217 98.190955,106.232002 C97.8590167,105.978026 97.6986064,105.824053 97.6986064,105.824053 C97.6986064,105.824053 97.8796636,105.952628 98.2417781,106.154222 Z M129.6568,169.478493 C80.2075224,169.484842 81.1032794,156.700301 81.1032794,156.700301 L84.9150111,144.598323 C84.9150111,144.598323 86.261823,153.787509 128.870631,151.771571 C168.094938,149.914368 175.740637,134.064649 175.740637,134.064649 L178.207145,148.18574 C178.208733,148.184153 166.773538,169.473731 129.6568,169.478493 Z" id="Shape" fill="#343334" fill-rule="nonzero"></path>
        </g>
    </g>
</svg>